<svg xmlns="http://www.w3.org/2000/svg" width="304" height="242" viewBox="0 0 304 242"><style>.a{fill:#7BAFAE;}.b{fill:#FAFCCB;}.c{fill:#BBBD98;}.d{fill:#5C8383;}.e{fill:#233142;}.f{fill:#FFB583;}.g{fill:#1A1A1A;}.h{fill:#FFF;}.i{fill:#B37A45;}.j{fill:#EFA35C;}.k{fill:#78522E;}.l{fill:#92D4D4;}.m{fill:#637586;}.n{fill:#625B72;}.o{fill:#3C5268;}</style><g fill="none"><path d="M245.5 92.7C245.5 94.2 244.3 95.4 242.8 95.4L95.6 95.4C94.1 95.4 92.9 94.2 92.9 92.7L92.9 2.7C92.9 1.2 94.1 0 95.6 0L242.8 0C244.3 0 245.5 1.2 245.5 2.7L245.5 92.7Z" class="a"/><path d="M235.9 86.5C235.9 88 234.7 89.2 233.2 89.2L104.5 89.2C103 89.2 101.8 88 101.8 86.5L101.8 7.5C101.8 6 103 4.8 104.5 4.8L233.2 4.8C234.7 4.8 235.9 6 235.9 7.5L235.9 86.5Z" class="b"/><path d="M130 33.6L139.4 20.9C136.8 19 133.5 17.8 130 17.8 121.3 17.8 114.2 24.9 114.2 33.6 114.2 42.3 121.3 49.4 130 49.4 138.7 49.4 145.8 42.3 145.8 33.6 145.8 32.9 145.7 32.2 145.7 31.6L130 33.6Z" fill="#0F327D"/><path d="M12.5 2.9L10.2 7.2 14 6 17.2 0.3 11.4-2.9 7.6-1.7 11.4 0.3C-3.2 2.6-15.3-7.1-15.4-7.2L-17.2-5.1C-16.6-4.6-3.6 5.9 12.5 2.9Z" transform="translate(149.27405 46.827515)scale(1 -1)" fill="#2CC773"/><polygon points="183 22 221.5 22 221.5 18.5 183 18.5" class="c"/><polygon points="183 28.8 221.5 28.8 221.5 25.4 183 25.4" class="c"/><polygon points="183 36.4 203.6 36.4 203.6 32.9 183 32.9" class="c"/><polygon points="134.8 74.8 142.4 74.8 142.4 59.7 134.8 59.7" class="d"/><polygon points="145.8 75.5 153.4 75.5 153.4 54.2 145.8 54.2" class="d"/><polygon points="156.8 74.8 164.4 74.8 164.4 48 156.8 48" class="d"/><path d="M204.9 56.8C204.9 56.8 205.4 53.7 204 51.1 202.6 48.4 202 43.9 198.5 43.4 195.1 42.8 191 44.1 191 44.1 191 44.1 191.2 43 190 43.4 188.8 43.7 184.6 47.7 183.7 49.1 182.8 50.5 191.4 61.8 191.4 61.8L204.9 56.8Z" class="e"/><path d="M190.2 71.1L190.2 74.1C190.2 74.7 189.8 75.3 189.2 75.5L187.1 76.4 188.6 80.3 195.7 82.3 201.7 81.3 205.6 76.7C205.6 76.7 201.9 74.5 201 73.1 200.7 72.6 200.3 71.5 200 70.3 199.5 68.2 199.1 65.9 199.1 65.9L190.2 71.1Z" class="f"/><path d="M200.1 70.3C199.6 68.2 199.2 65.9 199.2 65.9L190.5 71 190.5 74C190.5 74 194.3 74.5 196.6 73 198.8 71.6 200.1 70.3 200.1 70.3" class="g"/><path d="M183.6 56.8C183.6 56.8 184.2 62 184.3 63.2 184.5 64.4 186.7 68.4 187.8 69.8 188.8 71.2 190 72.2 192.9 72 195.9 71.9 197.8 71.9 198.4 70.8 199.1 69.8 202.6 64.1 202.9 61.7 202.9 61.7 205 60.6 205.3 59.4 205.7 58.2 206 54.6 204.8 54.6 203.6 54.6 202.6 56.5 202.6 56.5L202.1 51.5 191.4 52.7 185 54.9 183.6 56.8Z" class="f"/><path d="M181.6 53.3C181.6 53.3 181.6 55.3 181.9 56.5 182.3 57.7 182.8 58.3 183.8 58.2 184.8 58 188.2 57 190.3 56.8 192.3 56.6 196.4 53.9 196.4 53.9 196.4 53.9 194.9 56.1 195.7 56 196.6 55.8 199.8 54.4 199.8 54.4L200.3 58.3 201.9 57.1 201.5 56 202.9 52.6 201.2 49.4 188.4 49.2 182.8 48.7C182.8 48.7 181.6 51.1 181.6 53.3" class="e"/><path d="M187.8 75C187.8 75 189.7 80.1 196.1 79.7 202.5 79.4 204.9 74.1 204.9 74.1 204.9 74.1 212.2 74.4 214.6 76.8L214.2 96.4 213.5 103.4 211 126.9 187.5 125.9C187.5 125.9 182.6 107.2 181.9 104.3 181.2 101.4 180.9 93.9 180.9 93.9 180.9 93.9 173.3 101.4 172.6 102.9 171.9 104.4 171.4 105.5 171.7 106.7 172.1 107.9 178.1 124.4 178.1 124.4L172.1 125.1 170 125.2C170 125.2 160.8 110.8 160.3 106.1 159.8 101.5 162.6 97.3 165 93.5 167.4 89.8 172.4 81.9 173.6 80.1 174.8 78.2 185 74.8 187.8 75" class="h"/><path d="M210.7 127.3L213.2 103.6 213.9 96.6 210.4 91.9C210.4 91.9 209.5 115.7 205.9 125.4 202.3 135.1 205.9 125.4 205.9 125.4L210.7 127.3Z" class="g"/><path d="M171.7 106.4C171.4 105.2 171.9 104.1 172.6 102.6 173.3 101 180.9 93.5 180.9 93.5L180.7 89.2C180.7 89.2 172.8 98.9 171.7 100.8 170.7 102.6 171.7 106.4 171.7 106.4" class="g"/><path d="M206.4 125.6C206.4 125.6 203.3 126.9 202.4 127.1 201.6 127.2 200.7 127.7 200.7 127.7L198.8 135.9C198.8 135.9 201.2 134 202.8 133.9 204.3 133.7 208.5 133.7 211.1 129.4 211.1 129.4 208.7 125.6 206.4 125.6" class="f"/><path d="M215 76.9C217.4 79.2 231.9 103.3 231.9 103.3 231.9 103.3 234.4 107.2 232.4 109.4 230.5 111.6 211.1 129 211.1 129 211.1 129 209 125.9 207.4 125.6L206.3 125.1C206.3 125.1 220.4 107.7 222.5 106.3L213.7 95.8 213 82.8 215 76.9" class="h"/><path d="M304 204.5C304 220.8 235.9 234 152 234 68.1 234 0 220.8 0 204.5 0 188.2 68.1 175 152 175 235.9 175 304 188.2 304 204.5" style="fill:#FFF;opacity:0.06"/><path d="M287.5 145.1C287.5 146.5 281.2 147.5 273.4 147.5 265.6 147.5 259.3 146.5 259.3 145.1 259.3 143.8 265.6 142.7 273.4 142.7 281.2 142.7 287.5 143.8 287.5 145.1" class="i"/><path d="M287.5 145.5C287.5 146.7 281.2 147.7 273.4 147.7 265.6 147.7 259.3 146.7 259.3 145.5L262.2 175.2 263.2 185.7C263.2 186.6 267.8 187.3 273.4 187.3 279 187.3 283.6 186.6 283.6 185.7L284 181 287.5 145.5Z" class="j"/><path d="M284.7 180.9L284.3 185.7C284.3 186.6 279.7 187.3 274 187.3 268.4 187.3 263.8 186.6 263.8 185.7L262.7 175C262.7 175 268.4 181.6 282.6 180.9L284.7 180.9Z" class="g"/><path d="M282 145.5C282 146.2 278.3 146.8 273.7 146.8 269.2 146.8 265.5 146.2 265.5 145.5 265.5 144.7 269.2 144.1 273.7 144.1 278.3 144.1 282 144.7 282 145.5" class="k"/><path d="M273.2 105.7C273.2 105.7 255.5 67.1 271.4 38.4 271.4 38.4 294 71.1 273.2 105.7" class="d"/><path d="M271.3 50.8C271.7 55.3 271.9 59.8 272.2 64.3 272.4 68.8 272.6 73.4 272.8 77.9L273.2 91.4 273.4 98.2C273.5 100.5 273.6 102.7 273.7 105 272.8 100.5 272.4 96 272 91.5 271.6 87 271.4 82.4 271.2 77.9 271.1 73.4 271 68.9 271 64.4 271 59.8 271 55.3 271.3 50.8" class="a"/><path d="M251.1 72C251.1 72 249.9 109 273.3 120.1 273.3 120.1 278.6 79.1 251.1 72" class="a"/><path d="M253.1 76.2C254 77.9 254.9 79.6 255.8 81.4L258.5 86.6 263.7 97.1 268.9 107.7C269.8 109.4 270.7 111.1 271.6 112.9L273 115.5 274.4 118C273.2 116.5 272.1 114.8 271 113.2 270 111.5 268.9 109.9 268 108.1 266 104.7 264.2 101.3 262.4 97.7 260.7 94.2 259 90.7 257.5 87.1 255.9 83.5 254.4 79.9 253.1 76.2" class="l"/><path d="M291.2 72C291.2 72 267.1 89.2 273.4 119.4 273.4 119.4 300.1 105.6 291.2 72" class="a"/><path d="M288.2 83C287.7 86 286.9 89 286 91.9 285.1 94.8 284.1 97.6 282.9 100.5 281.8 103.3 280.5 106.1 279.1 108.8 277.7 111.5 276.1 114.1 274.4 116.6 275 115.2 275.7 113.9 276.3 112.5 276.9 111.1 277.5 109.7 278.1 108.3 279.3 105.5 280.5 102.8 281.6 100 282.8 97.2 283.9 94.3 285 91.5L288.2 83Z" class="l"/><path d="M274.2 128.1C274.2 128.1 268.5 108.8 298.5 100.2 298.5 100.2 297.3 130.9 274.2 128.1" class="d"/><path d="M293 107C292.1 109 291 110.9 289.8 112.7 288.6 114.5 287.2 116.2 285.8 117.8 284.3 119.5 282.8 121 281 122.4 279.2 123.7 277.3 124.9 275.1 125.6 277 124.4 278.7 123 280.2 121.6 281.8 120.1 283.3 118.6 284.7 117 286.2 115.4 287.5 113.7 288.9 112.1L293 107Z" class="a"/><path d="M251.7 99.5C251.7 99.5 250.4 124.2 275.6 128.3 275.6 128.3 279.5 104 251.7 99.5" class="d"/><path d="M257.2 106.4C259.6 109.5 261.7 112.7 264 115.7 265.1 117.3 266.3 118.8 267.6 120.2 268.8 121.7 270.1 123.1 271.7 124.2 269.8 123.6 268.2 122.3 266.8 121 265.4 119.6 264.1 118.1 262.9 116.5 260.6 113.4 258.7 110 257.2 106.4" class="a"/><path d="M273.3 139.3C273.3 139.3 265.3 119.9 296.4 112.5 296.4 112.5 292.7 139.1 273.3 139.3" class="a"/><path d="M277.2 135.2C280 132.2 282.9 129.4 285.6 126.4 287 125 288.4 123.5 289.7 122 291.1 120.5 292.3 118.9 293.7 117.3 292.8 119.2 291.8 121 290.5 122.7 289.4 124.3 288 125.9 286.6 127.4 283.8 130.4 280.7 133.1 277.2 135.2" class="l"/><path d="M273.5 139.3C273.5 139.3 282.9 125.6 256.8 114.6 256.8 114.6 253.3 138.9 273.5 139.3" class="a"/><path d="M262 123.5C264 126.2 265.7 129 267.6 131.8 268.5 133.1 269.4 134.5 270.4 135.8 271.4 137.1 272.4 138.4 273.7 139.3 272.1 138.9 270.7 137.7 269.6 136.5 268.4 135.3 267.4 133.9 266.5 132.5 264.6 129.7 263.1 126.7 262 123.5" class="l"/><path d="M273.2 144.8C273.2 144.8 268.1 134.1 283.3 132.4 283.3 132.4 284.5 144.3 273.2 144.8" class="d"/><path d="M274.4 143.4C275.6 142 276.8 140.8 278.1 139.5L280 137.7C280.6 137.1 281.3 136.5 282 135.9 281.6 137.6 280.5 139.1 279.2 140.4 277.8 141.7 276.3 142.8 274.4 143.4" class="a"/><path d="M273.4 144.8C273.4 144.8 276.7 135.1 263.5 132.4 263.5 132.4 262.2 144.5 273.4 144.8" class="d"/><path d="M267.6 137.2C268.5 138.5 269.3 139.6 270.3 140.6 270.8 141.1 271.3 141.6 271.9 142 272.5 142.5 273.1 142.9 273.7 143.4 272.9 143.4 272.1 143.2 271.3 142.9 270.6 142.6 269.9 142.1 269.3 141.5 268.8 140.9 268.3 140.2 268 139.5 267.7 138.8 267.5 138 267.6 137.2" class="a"/><path d="M49.5 132.1C49.5 133.4 43.2 134.5 35.4 134.5 27.6 134.5 21.3 133.4 21.3 132.1 21.3 130.8 27.6 129.7 35.4 129.7 43.2 129.7 49.5 130.8 49.5 132.1" class="i"/><path d="M49.5 131.7C49.5 133 43.2 134 35.4 134 27.6 134 21.3 133 21.3 131.7L24.4 163.4 25.3 172C25.3 172.9 29.8 173.6 35.4 173.6 41 173.6 45.6 172.9 45.6 172L47.4 153.9 49.5 131.7Z" class="j"/><path d="M46.8 153.7L45 172C45 172.9 40.5 173.6 35 173.6 29.4 173.6 24.9 172.9 24.9 172L24.1 163.4C24.1 163.4 34.5 166.2 45.3 156.1L46.8 153.7Z" class="g"/><path d="M44 131.7C44 132.5 40.3 133.1 35.8 133.1 31.2 133.1 27.5 132.5 27.5 131.7 27.5 131 31.2 130.4 35.8 130.4 40.3 130.4 44 131 44 131.7" class="k"/><path d="M35.2 91.9C35.2 91.9 17.6 53.4 33.5 24.7 33.5 24.7 56 57.4 35.2 91.9" class="d"/><path d="M32.6 37.7C33 42.3 33.3 46.8 33.5 51.3 33.8 55.8 33.9 60.3 34.1 64.8L34.5 78.4 34.8 85.2C34.8 87.4 34.9 89.7 35.1 91.9 34.2 87.5 33.8 83 33.4 78.4 33 73.9 32.8 69.4 32.6 64.9 32.4 60.4 32.3 55.8 32.3 51.3 32.3 46.8 32.4 42.3 32.6 37.7" class="a"/><path d="M12.4 59C12.4 59 11.2 95.9 34.7 107 34.7 107 39.9 66 12.4 59" class="a"/><path d="M14.4 63.1C15.4 64.9 16.3 66.6 17.2 68.3L19.8 73.6 25 84.1 30.2 94.6C31.1 96.4 32 98.1 32.9 99.8L34.3 102.4 35.8 105C34.5 103.4 33.4 101.8 32.3 100.2 31.3 98.5 30.3 96.8 29.3 95.1 27.3 91.7 25.5 88.2 23.8 84.7 22.1 81.2 20.4 77.6 18.8 74 17.3 70.4 15.8 66.8 14.4 63.1" class="l"/><path d="M53.2 58.3C53.2 58.3 29.2 75.5 35.4 105.7 35.4 105.7 62.1 91.9 53.2 58.3" class="a"/><path d="M49.5 70C49 73 48.2 75.9 47.3 78.8 46.5 81.7 45.4 84.6 44.3 87.4 43.1 90.2 41.9 93 40.4 95.7 39 98.4 37.5 101.1 35.8 103.6 36.3 102.2 37 100.8 37.6 99.4 38.2 98.1 38.9 96.7 39.4 95.3 40.6 92.5 41.8 89.7 43 86.9 44.1 84.1 45.2 81.3 46.3 78.5L49.5 70Z" class="l"/><path d="M35.5 115.1C35.5 115.1 29.8 95.7 59.8 87.1 59.8 87.1 58.6 117.8 35.5 115.1" class="d"/><path d="M54.3 94.7C53.4 96.7 52.3 98.5 51.1 100.3 49.9 102.1 48.6 103.8 47.1 105.5 45.6 107.1 44.1 108.7 42.3 110 40.6 111.4 38.6 112.6 36.5 113.2 38.4 112.1 40 110.7 41.6 109.2 43.2 107.8 44.6 106.2 46.1 104.6 47.5 103 48.9 101.4 50.2 99.7L54.3 94.7Z" class="a"/><path d="M13.1 86.5C13.1 86.5 11.8 111.1 37 115.3 37 115.3 40.9 90.9 13.1 86.5" class="d"/><path d="M18.6 93.3C20.9 96.4 23.1 99.6 25.4 102.7 26.5 104.2 27.7 105.7 28.9 107.2 30.1 108.6 31.4 110.1 33 111.2 31.1 110.5 29.5 109.3 28.1 107.9 26.7 106.6 25.4 105.1 24.3 103.5 22 100.4 20 97 18.6 93.3" class="a"/><path d="M35.3 125.6C35.3 125.6 27.3 106.2 58.5 98.8 58.5 98.8 54.7 125.4 35.3 125.6" class="a"/><path d="M38.5 122.8C41.4 119.9 44.2 117.1 47 114.1 48.4 112.6 49.7 111.1 51 109.6 52.4 108.1 53.7 106.5 55 105 54.1 106.8 53.1 108.6 51.9 110.3 50.7 112 49.4 113.6 48 115.1 45.2 118 42 120.8 38.5 122.8" class="l"/><path d="M34.8 126.3C34.8 126.3 44.2 112.5 18.1 101.6 18.1 101.6 14.6 125.9 34.8 126.3" class="a"/><path d="M23.4 110.5C25.4 113.2 27.1 116 28.9 118.7 29.8 120.1 30.7 121.4 31.7 122.8 32.7 124 33.7 125.3 35.1 126.3 33.4 125.8 32.1 124.7 30.9 123.5 29.8 122.2 28.7 120.9 27.8 119.5 26 116.7 24.4 113.7 23.4 110.5" class="l"/><path d="M35.2 131.7C35.2 131.7 30.1 121.1 45.4 119.4 45.4 119.4 46.5 131.3 35.2 131.7" class="d"/><path d="M36.5 129.7C37.6 128.2 38.9 127 40.1 125.8L42 124C42.7 123.4 43.3 122.7 44 122.1 43.6 123.9 42.5 125.4 41.2 126.7 39.9 127.9 38.3 129.1 36.5 129.7" class="a"/><path d="M35.4 131.7C35.4 131.7 38.7 122.1 25.5 119.4 25.5 119.4 24.2 131.5 35.4 131.7" class="d"/><path d="M28.9 123.5C29.8 124.8 30.6 125.9 31.7 126.9 32.1 127.4 32.7 127.9 33.2 128.3 33.8 128.8 34.4 129.2 35.1 129.7 34.3 129.7 33.4 129.5 32.7 129.2 31.9 128.8 31.2 128.3 30.7 127.8 30.1 127.2 29.6 126.5 29.3 125.8 29 125.1 28.8 124.3 28.9 123.5" class="a"/><path d="M149.7 161.9L146.5 196.6C146.5 196.6 148.3 197.3 149.7 196.6L156.1 163.7 149.7 161.9Z" class="m"/><path d="M231.1 146.2C231.1 160.2 210.3 171.5 184.7 171.5 159 171.5 138.2 160.2 138.2 146.2 138.2 132.1 159 120.8 184.7 120.8 210.3 120.8 231.1 132.1 231.1 146.2" class="n"/><path d="M225.6 148.6C225.6 159 209.7 167.4 190.2 167.4 170.6 167.4 154.8 159 154.8 148.6 154.8 138.1 170.6 129.7 190.2 129.7 209.7 129.7 225.6 138.1 225.6 148.6" class="g"/><path d="M178.8 158.5C178.8 160 173.7 161.3 167.5 161.3 161.2 161.3 156.1 160 156.1 158.5 156.1 157 161.2 155.8 167.5 155.8 173.7 155.8 178.8 157 178.8 158.5" class="c"/><path d="M174.1 151.9C173.7 151.9 173.4 151.6 173.4 151.3 173.4 150.9 173.7 150.6 174.1 150.6 174.4 150.6 174.7 150.9 174.7 151.3 174.7 151.6 174.4 151.9 174.1 151.9M173.3 149.7L173.5 148.1C173.5 148.1 167.9 145.5 160.3 147.8 159.8 147.9 159.5 148.4 159.6 149 159.9 151.3 160.9 157.4 162.2 158.7 162.2 158.7 166.4 159.8 171.2 158.7 171.2 158.7 173.1 154.1 173.1 152.9 173.1 152.9 175.8 153.1 176 151.5 176.3 149.9 174.9 149.5 173.3 149.7" class="b"/><path d="M171.9 149.6C171.9 150.3 169.5 151 166.4 151 163.4 151 160.9 150.3 160.9 149.6 160.9 148.8 163.4 148.2 166.4 148.2 169.5 148.2 171.9 148.8 171.9 149.6" class="c"/><path d="M165.1 140.1L165.1 141.4C165.1 142.5 166 143.4 167.1 143.4L197 143.4C197.7 143.4 198.4 143.1 198.9 142.5L206.7 131.7C207.5 130.6 206.7 129 205.3 129L172 129 165.1 140.1Z" class="e"/><path d="M161.7 118.4L167.8 141.4 196.8 141.4 202.8 118.1C203.2 116.3 201.8 114.6 200 114.6L164.6 114.6C162.7 114.6 161.2 116.5 161.7 118.4" class="e"/><polygon points="124.5 158.8 125.9 164 130 160.8 127.3 156.4" class="f"/><polygon points="119.9 172.2 121.7 178.9 115.7 179.8 115.5 174.7" class="f"/><path d="M110 88C110 88 110.9 87.1 110.4 84.7 109.9 82.4 110 78.1 110.7 76.9 111.4 75.7 112.5 76 112.5 76 112.5 76 111.8 80.6 112.5 80.6 113.1 80.6 117.1 76.2 118.6 75.8 120.2 75.5 122.3 74.6 122.8 74.8 123.3 75 124.5 76.2 124.5 76.7 124.5 77.2 121.7 79.8 121 80.8 120.4 81.8 116.2 87.7 113.5 89.2L110 88Z" class="f"/><path d="M53.5 157.1L46.8 191.4C46.8 191.4 48.5 192.4 49.6 192.1L59.8 158.9 53.5 157.1Z" class="m"/><path d="M73.6 163.1L78.9 197.5C78.9 197.5 80.5 198 81.2 197L79.8 161.9 73.6 163.1Z" class="m"/><path d="M64.7 142.5L69.9 176.9C69.9 176.9 71.6 177.4 72.2 176.4L70.9 141.4 64.7 142.5Z" class="m"/><path d="M98.4 146L103.6 180.3C103.6 180.3 105.3 180.8 105.9 179.8L104.6 144.8 98.4 146Z" class="m"/><path d="M57.7 101.6C57.7 101.6 47.1 104.3 42.6 107 38.1 109.8 35.4 116.3 38.5 123.5 41.6 130.8 54.1 164.3 60.1 167.2 69.4 171.6 93.2 166.5 106.6 156.9L102.1 140.4 76 120.4 57.7 101.6Z" class="n"/><path d="M57.6 101.6L75.8 120.4 101.8 140.3 103.9 147.8C103.9 147.8 93 152.2 85 153.4 77 154.6 66.7 156.6 61.8 146.4 56.9 136.2 42.2 111.3 60.5 106.9L57.6 101.6Z" class="g"/><polygon points="64.8 92.9 66.4 87 67.8 81.7 76.2 83.6 74.9 86.1 75.2 89.2 75.3 90.8 77.2 90.7 77.7 93.7 71.3 100.2 63.3 96.3" class="f"/><path d="M75.7 83.2L67.4 81.7 66 85.9C66 85.9 69.9 88.3 74.7 87.7L74.5 85.2 75.7 83.2" class="g"/><path d="M76.4 58.2C76.4 58.2 79.5 63.4 80.7 65.9 81.9 68.3 80.4 70.3 80.4 70.3L80.5 74.8 66.9 71.6 67 67.7 66.7 60.9 70.4 56.3 76.4 58.2Z" class="f"/><path d="M69.8 62C69.8 62 69.3 63.2 69.1 65.1 68.9 67 69.6 70.6 71.1 71.4 72.7 72.3 74.9 71.1 77.6 71.3 80.4 71.4 81.9 71.1 83.1 72.8 84.3 74.5 87.9 82.9 81.9 85.1 75.9 87.3 66 83.6 64.3 80.5 62.6 77.4 61.1 72.4 61.2 67 61.4 61.5 62.6 56.9 67.4 55.2 72.2 53.5 77.3 54.2 79 56.2 80.7 58.3 80 59.6 78.5 59.8 77 60 70.1 60.1 69.8 62" class="e"/><path d="M64.3 68.3C64.3 68.3 61.3 65.9 59.8 66.7 58.3 67.6 59.3 71.2 63 70.6L64.7 70.4 64.3 68.3Z" class="f"/><path d="M68.7 145.2C68.7 145.2 65.5 146.4 63.9 143.3 62.3 140.3 60.3 119.1 60.1 116.4 59.9 113.6 60.4 107.8 58.2 105.4 56 103 54.2 102.6 54.2 102.6 54.2 102.6 43.7 105.5 42 107.3 42 107.3 46.4 99.2 49.6 96.8 52.7 94.4 63.6 91.3 64.4 90.9 64.4 90.9 66.7 94.5 71.5 93.7 76.3 92.8 76.9 89.7 76.9 89.7 76.9 89.7 78.9 88.9 81.2 89.4 83.4 89.9 97.8 100.4 98.5 100 99.1 99.7 109.5 87.1 109.5 87.1 109.5 87.1 111.4 88.9 112.8 89.2 112.8 89.2 107.8 102.3 104.3 108.6 103.1 110.7 102 112 101.4 111.9 98.8 111.4 85.5 104.7 85.5 104.7 85.5 104.7 86.2 114.7 86.8 120.3 86.9 122.1 87.1 123.5 87.2 123.9 87.7 125.8 80.5 134.8 78.9 135.8 77.4 136.8 68.7 145.2 68.7 145.2" class="h"/><path d="M86.9 120.6C87 122.3 87.2 123.7 87.3 124.1 87.8 126 80.7 134.9 79.1 135.9 77.6 136.9 69.1 145.2 69.1 145.2 69.1 145.2 65.8 146.4 64.3 143.4 62.7 140.3 60.7 119.4 60.5 116.6 60.5 116.6 66.2 133.3 69.9 133.3 73.7 133.3 78.8 126 82 123.6 85.3 121.2 86.9 120.6 86.9 120.6" class="g"/><path d="M86.3 105.4C86.3 105.4 99.2 112 101.8 112.5 102.4 112.7 103.4 111.3 104.5 109.3 104.5 109.3 102.9 110.8 100.1 110 97.2 109.1 86 100.9 86 100.9L86.3 105.4Z" class="g"/><path d="M101.8 128.7C101.8 128.7 109.8 126.4 110.3 128.5 110.4 129 111.1 131.6 112 135.3 115 147.3 121.1 171 121.7 172.4 121.7 172.4 116 175.7 115.7 177 115.7 177 113.8 176 113.1 174.6 112.7 173.9 109.6 167.4 106.6 160.6 103.8 154.2 101 147.7 100.7 145.9 100.7 145.9 88.6 147.6 83.9 147.1L88.9 138.6 101.8 128.7Z" class="o"/><path d="M111.4 135.2C110.5 131.6 109.9 129 109.7 128.5 109.2 126.4 101.4 128.7 101.4 128.7L88.8 138.6 83.9 147.1C88.5 147.6 100.4 145.9 100.4 145.9 100.6 147.6 103.4 154.2 106.2 160.6 106.2 160.6 102.4 142.8 104.6 139.2 106.9 135.7 111.4 135.2 111.4 135.2" class="g"/><path d="M73.3 134.8C73.3 134.8 69 140.2 68.8 142.8 68.6 145.4 69.7 149.1 72.8 150.1 75.9 151.2 83.6 148.8 87.8 145.9 91.9 143 102.1 130.7 105 130 107.9 129.3 110.2 129.1 110.9 131L115.5 148.9C115.5 148.9 121.5 157.8 124.3 159.9 124.3 159.9 127.2 157.5 128.6 157 128.6 157 115 123.5 114.3 121.3 113.6 119 112.2 115.8 108.8 116 105.3 116.1 88.6 122.6 86.4 123.5 84.1 124.3 76.6 130.7 73.3 134.8" class="o"/><path d="M114.6 181.4C114.6 181.4 112.5 189.4 114 190.6 115.6 191.7 121.4 191.3 122 191.2 122.6 191.1 122.6 189.4 123.6 189.7 124.6 190 126.6 191.3 128.1 191.4 129.5 191.6 138.5 190.3 140.5 189.4 142.5 188.5 142.6 186.9 142.1 186.4 141.6 185.9 138.7 187 136.7 186 134.7 185 124 180.5 121.5 179.8L114.8 180.8 114.6 181.4Z" class="e"/><path d="M125.3 165.3C125.3 165.3 127.2 172.6 128.9 172.9 130.6 173.2 135.2 170.4 135.7 170.1 136.1 169.8 135.3 168.4 136.3 168.2 137.2 168.1 139.4 168.2 140.7 167.7 141.9 167.2 148.7 162.4 149.9 160.9 151.2 159.3 150.5 158 149.9 157.8 149.2 157.7 147.4 159.7 145.3 159.7 143.3 159.7 132.5 160.6 130.2 161.1L125.2 164.7 125.3 165.3Z" class="e"/><path d="M210.7 204L209.1 241.1C209.1 241.1 210.7 242.1 211.8 241.1L216.7 203.8 210.7 204Z" class="m"/><path d="M232.5 202.4L241.9 236C241.9 236 244.4 236.4 244.9 234.8L237.5 199 232.5 202.4Z" class="m"/><path d="M211.1 189.4L220.5 222.9C220.5 222.9 223.1 223.4 223.5 221.8L216.2 186 211.1 189.4Z" class="m"/><path d="M189.9 164.6C189.9 164.6 185.9 163.2 183 164.6 180 166 178.8 169.2 178.8 170.6 178.8 172 199.6 216.1 199.6 216.1L203.6 214.3 199.4 189.9 189.9 164.6Z" class="f"/><path d="M184.8 170.2C184.8 170.2 180.8 169.3 178.6 169.5 176.4 169.7 174.2 171.2 173.5 172.8 172.8 174.3 172.3 177.7 172.8 179.9 173.4 182.2 185.1 208 185.3 211.2 185.4 214.5 184.6 217.4 183.2 219.9 181.9 222.5 180 226.6 179.3 227 178.6 227.3 178.3 228.3 178.3 228.3L181.9 229.2 185.1 228.3 189 219.8 192.6 215.2C192.6 215.2 191.2 213.1 190.7 210.5 190.2 208 189.3 191.2 189.2 189.7 189 188.1 184.8 170.2 184.8 170.2" class="f"/><path d="M192.9 213.7C192.9 213.7 192 213 190.1 213.7 188.2 214.4 187.2 217.4 186.3 219.6 185.5 221.9 183.2 227 182.4 227.1 181.5 227.3 178.8 226.4 178.8 226.4L178.9 225.7C178.9 225.7 176.7 226.1 176 226.3 175.3 226.4 173.1 227.3 176.7 229.7 180.3 232.2 181.9 232 183.8 231.8 185.7 231.7 186.7 231.7 187.2 230.6 187.7 229.6 189.8 224.2 189.8 224.2L190.1 231.8C190.1 231.8 191.7 232 192.5 231.5 192.5 231.5 193.7 220.9 194.1 219.5 194.4 218.1 195.6 214.6 192.9 213.7" class="e"/><path d="M185.5 192.1L171.9 234.5C171.9 234.5 173.3 235.9 174.6 235.1L190.5 195.1 185.5 192.1Z" class="m"/><path d="M201.3 212.1C201.3 212.1 198.1 212.3 197.5 215.9 197.2 217.4 197.8 219.8 198.7 222.2 200 225.5 201.7 228.7 202.1 229 202.7 229.5 206.4 228.7 207.7 227 207.7 227 207.3 223.2 206.7 220 206.5 218.5 206.3 217.2 206.1 216.4 205.4 214 204.4 211.5 201.3 212.1" class="e"/><path d="M200.1 218.2L205.4 231.2C205.4 231.2 206.8 231.4 207.7 230.5L204.3 216.8C204.3 216.8 200.1 217.5 200.1 218.2" class="e"/><path d="M224.7 166.9C224.7 166.9 207.8 165.7 197.6 165.1 193.4 164.8 190.4 164.6 190.1 164.7 188.9 164.9 184.1 167.1 180.5 170.8 176.9 174.5 180.3 179.5 180.3 179.5L192.5 191.8 212.7 196.9 225.3 192.7 228.3 181.3 224.7 166.9Z" class="o"/><path d="M192.4 131.1C192.4 131.1 191.5 135.8 192.1 136.7 192.6 137.6 197.9 142.3 199 144 200.1 145.7 202.1 149.2 202.2 149.5 202.3 149.9 206.1 147.7 206.1 147.7 206.1 147.7 205.5 144.9 205.9 143.4 206.3 141.9 207.1 138 207 137.1 206.9 136.1 192.4 131.1 192.4 131.1" class="f"/><path d="M209 137.4L203.9 142.1C202.9 143 201.3 142.9 200.4 141.9L189.1 129.6C188.2 128.6 188.2 127.1 189.3 126.1L194.3 121.4C195.3 120.5 196.9 120.6 197.8 121.6L209.1 133.8C210 134.9 210 136.4 209 137.4" class="h"/><polygon points="207 132.9 200.6 138.6 190.5 127.9 196.9 122.1" class="m"/><path d="M194.6 136.1C194.6 136.1 195.6 135.9 196.3 135.2 197 134.5 200.3 131.7 200.9 131.7 201.5 131.7 202.2 132.4 202.2 132.9 202.2 133.3 200.4 135.9 199.8 136.9 199.2 137.9 198.2 139.5 198.4 139.9 198.5 140.2 198.5 141.4 198.5 141.4L194.6 137.6 194.6 136.1Z" class="f"/><path d="M240.9 131.1C240.9 131.1 233.8 132.2 229.2 136.1 224.6 140 215.1 159 215.1 159L206.8 146.2C206.8 146.2 202.9 147.3 201.5 148.7 201.5 148.7 205 165.4 206.6 170.2 208.2 175 213.3 176.3 215.1 176.3 217 176.3 227.1 165.1 227.1 165.1L243.5 145.2 240.9 131.1Z" class="h"/><path d="M256.2 136.7C256.2 136.7 236.1 141.7 233.4 142.6 230.6 143.5 225.7 143.7 224.4 154.6 223 165.4 222.5 175.8 222.5 175.8 222.5 175.8 223.4 195.1 208.2 192.1 193 189.2 179.4 179.1 179.4 179.1 179.4 179.1 175.4 183.3 178.9 188.5 182.3 193.7 192.7 204.8 213.7 206.4 234.7 207.9 248.8 199.1 254.4 179.2 259.9 159.3 262.7 144.9 262.7 144.9 262.7 144.9 266.6 135.1 256.2 136.7" class="n"/><path d="M224.4 153.7C223 164.7 222.5 175.2 222.5 175.2 222.5 175.2 223.4 194.6 208.2 191.6 193 188.6 179.5 178.4 179.5 178.4 179.5 178.4 188.1 193.6 210 195.5 231.8 197.4 224.4 153.7 224.4 153.7" class="g"/><path d="M238.5 104.3C238.5 104.3 233.2 113.4 233.2 116.4 233.2 119.4 239.4 126.3 239.4 126.3L242.8 119.2 238.5 104.3Z" class="f"/><path d="M249.4 93.4C249.4 93.4 242.5 93.9 239 100.3 235.5 106.7 238.3 118.6 238.6 120.4 238.8 122.2 239.9 139.4 239.5 141.2 239 143.1 243.9 144 250.8 143.1 257.8 142.1 262.9 138.9 262.9 138.9L265.2 140.3C265.2 140.3 267 136.9 265.7 133 264.3 129.1 264 121.6 263.8 117 263.6 112.4 265 91.6 249.4 93.4" class="e"/></g></svg>
